<?xml version="1.0" encoding="utf-8"?>
<!-- Generator: Adobe Illustrator 23.0.3, SVG Export Plug-In . SVG Version: 6.00 Build 0)  -->
<svg version="1.1" id="Layer_1" xmlns="http://www.w3.org/2000/svg" xmlns:xlink="http://www.w3.org/1999/xlink" x="0px" y="0px"
	 viewBox="0 0 257.7 96.8" style="enable-background:new 0 0 257.7 96.8;" xml:space="preserve">
<style type="text/css">
	.st0{fill:#ED2224;}
	.st1{enable-background:new    ;}
</style>
<path class="st0" d="M10.2,46.9c9.3-9.3,18.1-19.2,27.8-28.1c3.8-3.5,7.9-6.9,13.4-7c9.6-0.1,21.2,7.7,21.3,18.1
	c0.1,7.5-5.9,13.3-10.6,18.3L38.7,72.8c2.6,0,5.2,0,7.7,0c2.8,0,5.7,0.2,8.5,0.1c1.4,0,2.8-0.3,3.9-1c2.3-1.6,3.1-5.3,2.5-7.9
	c-0.7-2.8-3.5-4.4-5.4-6.3c-2.6-2.6-5.2-5.2-7.8-7.8c-1.4-1.4-2.8-2.8-4.2-4.2L24.5,66.3H10.2l33.7-33.7c4,4,7.9,7.9,11.9,11.9
	c5.3,5.3,12.1,9.8,15,17c1.6,3.8,0.9,8.1-1.1,11.6c-2.5,4.3-6,7.4-11.2,7.5c-2.7,0-5.4,0.2-8.1,0.2c-7.6,0.2-15.1,0.4-22.7,0.7
	c-3.7,0.1-7.4,0.3-11.1,0.3c6.9-7.2,13.9-14.3,20.8-21.5c4.8-5,9.7-10,14.6-15c4.3-4.4,10.7-7.9,9-14.9c-1.1-4.5-5.8-8.9-10.6-8.4
	c-3.8,0.4-6.1,3.7-8.5,6.3c-2.5,2.6-5,5.3-7.5,7.9c-2.3,2.5-4.6,4.9-7,7.4c-0.4,0.4-2.4,3.2-3,3.2C24.5,46.9,10.2,46.9,10.2,46.9z"
	/>
<g class="st1">
	<path d="M105.2,76.5c-3.6,0-6.4-0.4-8.4-1.2c-2-0.8-3.3-1.9-4.1-3.4c-0.7-1.4-1.1-3.1-1.1-5.1c0-1,0.1-2,0.2-3.2
		c0.2-1.2,0.3-2.6,0.6-4.1c1-5.9,1.4-11.1,1.4-15.6c0-3-0.1-5.5-0.4-7.6c-0.2-2.1-0.9-4.1-2.1-6c-0.2-0.3-0.4-0.7-0.6-1
		c-0.2-0.3-0.2-0.6-0.2-0.8c0-0.6,0.4-1.3,1.1-2c0.7-0.7,1.7-1.3,2.7-1.8c1.1-0.5,2.1-0.7,3-0.7c1.8,0,2.9,0.7,3.4,2.2
		c0.5,1.4,0.7,3.5,0.7,6.2c0,1-0.1,2.6-0.3,4.8c-0.2,2.2-0.5,5-1,8.4c-0.4,3.3-0.7,6.2-1,8.6c-0.2,2.4-0.3,4.3-0.3,5.8
		c0,2.1,0.3,3.7,0.8,4.8c0.5,1.1,1.3,1.9,2.5,2.3c1.2,0.4,2.8,0.6,5,0.6c2.3,0,4.5-0.2,6.6-0.6c2.1-0.4,4.1-1,6.1-1.9
		c0.3-0.1,0.5-0.2,0.7-0.2c0.2-0.1,0.4-0.1,0.6-0.1c0.5,0,0.9,0.3,1.4,0.9c0.4,0.6,0.6,1.4,0.6,2.5c0,2.3-1.3,4.2-3.8,5.5
		C115.9,75.6,111.2,76.5,105.2,76.5z"/>
	<path d="M143.5,76.5c-5.1,0-8.8-0.8-11.2-2.4c-2.4-1.6-3.6-4.7-3.6-9.2c0-0.9,0.1-2,0.2-3.3c0.1-1.3,0.3-2.8,0.6-4.6
		c0.4-2.6,0.7-4.9,1-7c0.2-2.1,0.3-4.3,0.3-6.8c0-1.6,0-3.1-0.1-4.6c-0.1-1.5-0.2-2.9-0.4-4.2c-0.8,0.2-1.3,0.2-1.6,0.2
		c-0.4,0-0.7-0.1-0.9-0.3c-0.2-0.2-0.2-0.5-0.2-1.1c0-1.1,0.1-2.2,0.4-3.3c0.3-1.1,0.6-2,1.1-2.7c0.9-1.3,2.3-2,4.2-2.2
		c1.4-0.2,3.2-0.3,5.3-0.5c2.1-0.2,4.3-0.3,6.5-0.4c2.2-0.1,4.2-0.1,6-0.1c4.9,0,7.8,0.1,8.7,0.3c1.4,0.2,2.1,1,2.1,2.2
		c0,1.6-0.6,3.1-1.7,4.4c-0.6,0.8-1.2,1.4-1.8,1.7c-0.6,0.3-1.4,0.5-2.5,0.4c-2.3-0.2-4.4-0.3-6.2-0.3c-1.8-0.1-3-0.1-3.7-0.1
		c-1.2,0-2.5,0-3.8,0.1c-1.3,0.1-2.6,0.1-4,0.2c0,1.9-0.1,3.9-0.2,6c-0.2,2.1-0.4,4.4-0.6,6.7c2.5-0.2,5.2-0.3,8.3-0.4
		c3.1-0.1,5.8-0.1,8.2-0.1c1.1,0,1.8,0.1,2.2,0.3c0.4,0.2,0.6,0.8,0.6,1.7c0,0.9-0.2,1.8-0.7,2.8c-0.5,1-1.1,1.9-1.8,2.7
		c-0.3,0.3-0.7,0.6-1,0.8c-0.4,0.2-0.9,0.3-1.5,0.2c-2.3-0.1-4.9-0.2-7.8-0.2c-2.9-0.1-5.5-0.1-7.6,0c-0.2,1.2-0.4,2.3-0.5,3.4
		c-0.1,1-0.2,1.9-0.2,2.7c0,2.9,0.7,5,2.2,6.2c1.5,1.2,3.9,1.8,7.4,1.8c2.1,0,4.1-0.2,6-0.6c1.9-0.4,3.9-1.1,6-2.1
		c0.7-0.4,1.3-0.6,1.7-0.6c0.6,0,1.2,0.4,1.7,1.2c0.6,0.8,0.8,1.7,0.8,2.7c0,1.2-0.4,2.3-1.3,3.3s-2,1.9-3.5,2.7
		c-1.7,0.7-3.6,1.3-5.9,1.7C148.3,76.3,145.9,76.5,143.5,76.5z"/>
	<path d="M182.8,76.3c-0.6,0-1.3-0.1-2-0.3c-0.7-0.2-1.2-0.7-1.6-1.5c-0.4-0.8-0.6-2-0.6-3.7c0-1.2,0.1-2.6,0.3-4.3
		c0.2-1.7,0.4-3.5,0.8-5.5c0.4-2.7,0.8-5.5,1.1-8.4c0.3-3,0.4-6,0.4-9.1c0-2.5-0.1-4.7-0.4-6.5c-0.2-1.8-0.5-3.3-0.9-4.3
		c-2,0.1-3.9,0.2-5.8,0.4c-1.8,0.2-3.7,0.6-5.5,1c-0.5,0.1-0.9,0.1-1.2,0.2c-0.3,0.1-0.7,0.1-1,0.1c-0.5,0-0.8-0.1-1-0.3
		c-0.2-0.2-0.3-0.7-0.3-1.4c0-0.9,0.1-1.9,0.4-2.8c0.3-1,0.7-1.8,1.2-2.5c0.5-0.7,1.2-1.3,1.9-1.6c0.7-0.3,1.5-0.6,2.4-0.7
		c1.3-0.2,3-0.3,5.1-0.4c2.1-0.1,4.4-0.3,6.8-0.4c2.5-0.1,4.9-0.2,7.3-0.2c3.9,0,6.7,0,8.4,0.1c1.7,0.1,2.8,0.1,3.4,0.2
		c0.7,0.1,1.3,0.3,1.6,0.7c0.3,0.3,0.4,0.9,0.4,1.6c0,1.4-0.6,2.9-1.9,4.3c-0.5,0.6-1.1,1.1-1.7,1.5c-0.6,0.3-1.4,0.5-2.3,0.4
		c-0.9-0.1-2.1-0.2-3.8-0.2c-1.7-0.1-3.5-0.1-5.5-0.1c-0.1,1.9-0.2,4-0.4,6.5s-0.5,5-0.8,7.5c-0.3,2.5-0.6,4.9-0.8,7.4
		c-0.2,2.5-0.3,4.7-0.3,6.7c0,1.9,0.2,3.5,0.5,4.9c0.3,1.4,1.1,2.6,2.1,3.6c0.7,0.7,1.1,1.5,1.1,2.4c0,1.2-0.7,2.2-2,3.2
		S185,76.3,182.8,76.3z"/>
	<path d="M219.2,76.5c-2.6,0-5-0.4-7.2-1.2c-2.2-0.8-4-1.9-5.3-3.2c-1.3-1.4-2-3-2-4.9c0-1.2,0.3-2.3,0.9-3.2
		c0.6-0.9,1.4-1.4,2.4-1.4c0.6,0,1.3,0.2,2,0.7c1.3,1.2,3.1,2.2,5.2,3.1c2.1,0.9,4.4,1.3,6.8,1.3c3.1,0,5.7-0.6,7.7-1.9s3-2.9,3-5.1
		c0-2-0.9-3.5-2.8-4.4c-1.9-0.9-4.5-1.8-7.8-2.6c-2.5-0.6-4.8-1.3-7.1-2.2c-2.3-0.9-4.1-2.2-5.6-3.8c-1.5-1.6-2.2-3.8-2.2-6.5
		c0-2.1,0.5-4.1,1.4-6.2c0.9-2.1,2.2-3.9,4-5.6c1.8-1.7,3.9-3.1,6.4-4.1c2.5-1,5.3-1.6,8.5-1.6c2.3,0,4.5,0.3,6.4,0.8
		c1.9,0.5,3.5,1.3,4.6,2.2c1.1,1,1.7,2.1,1.7,3.5c0,1.1-0.3,2-0.9,2.8c-0.6,0.8-1.3,1.4-2.1,1.9c-0.8,0.5-1.5,0.7-2.1,0.7
		c-0.5,0-1.3-0.2-2.2-0.7c-1.5-0.8-3.2-1.4-5-1.9c-1.8-0.5-3.5-0.7-4.8-0.7c-2.6,0-4.7,0.6-6.4,1.7c-1.6,1.1-2.4,2.5-2.4,4
		c0,1.7,1,3.1,3.1,4.3c2.1,1.1,5.7,2.4,11.1,3.6c3.6,1,6.5,2.3,8.5,4c2,1.7,3,4.3,3,8c0,3.3-0.9,6.3-2.6,9.1
		c-1.7,2.8-4.2,5.1-7.3,6.8C227,75.7,223.4,76.5,219.2,76.5z"/>
</g>
</svg>
